<svg xmlns="http://www.w3.org/2000/svg" viewBox="0 0 41.55 31.96"><defs><style>.cls-1{fill:#404040;}</style></defs><g id="Layer_2" data-name="Layer 2"><g id="smartphone"><path class="cls-1" d="M41.31,9.82a.79.79,0,0,0-.56-.23h-4v-4A.79.79,0,0,0,36.52,5,.8.8,0,0,0,36,4.79H32V.8a.84.84,0,0,0-.23-.57A.81.81,0,0,0,31.16,0H.8A.86.86,0,0,0,.23.23.81.81,0,0,0,0,.8V21.57a.79.79,0,0,0,.23.57.81.81,0,0,0,.57.23h4v4a.8.8,0,0,0,.24.56.79.79,0,0,0,.56.23h4v4a.79.79,0,0,0,.23.56.76.76,0,0,0,.57.24H40.75a.76.76,0,0,0,.56-.24.8.8,0,0,0,.24-.56V10.39A.8.8,0,0,0,41.31,9.82Zm-11-8.22V4.71A4,4,0,0,1,27.25,1.6ZM1.6,1.6H4.71A4,4,0,0,1,1.6,4.71Zm0,19.17V17.66a4,4,0,0,1,3.11,3.11ZM1.6,16V6.33A5.59,5.59,0,0,0,6.33,1.6h19.3a5.59,5.59,0,0,0,4.73,4.73V16a5.59,5.59,0,0,0-4.73,4.73H6.33A5.59,5.59,0,0,0,1.6,16Zm28.76,1.62v3.11H27.25A4,4,0,0,1,30.36,17.66Zm-24,7.91v-3.2H31.16a.83.83,0,0,0,.57-.23.84.84,0,0,0,.23-.57V16.79h0V6.39h3.2V25.57ZM40,30.36H11.18v-3.2H36a.79.79,0,0,0,.8-.79V11.18H40ZM16,3.2a8,8,0,1,0,8,8A8,8,0,0,0,16,3.2Zm0,14.38a6.4,6.4,0,1,1,6.39-6.4A6.4,6.4,0,0,1,16,17.58Z"/></g></g></svg>