<svg xmlns="http://www.w3.org/2000/svg" viewBox="0 0 47.82 37.57"><defs><style>.cls-1{fill:#404040;}</style></defs><g id="Layer_2" data-name="Layer 2"><g id="smartphone"><path class="cls-1" d="M44.4,10.25H37.57V3.42A3.42,3.42,0,0,0,34.15,0H3.42A3.42,3.42,0,0,0,0,3.42V23.91a3.42,3.42,0,0,0,3.42,3.41h2.2L12.2,33.9a.85.85,0,0,0,.61.25.87.87,0,0,0,.32-.06.85.85,0,0,0,.53-.79v-6h3.42V29a3.42,3.42,0,0,0,3.41,3.42H35.86v4.27a.85.85,0,0,0,.53.78.78.78,0,0,0,.33.07.86.86,0,0,0,.6-.25l4.87-4.87H44.4A3.43,3.43,0,0,0,47.82,29V13.66A3.42,3.42,0,0,0,44.4,10.25ZM46.11,29a1.72,1.72,0,0,1-1.71,1.71H41.84a.84.84,0,0,0-.6.25l-3.67,3.66V31.59a.85.85,0,0,0-.85-.85H20.49A1.72,1.72,0,0,1,18.78,29V27.32H31.59a.85.85,0,1,0,0-1.7H18.78V13.16l2,2a.85.85,0,0,0,.61.25.83.83,0,0,0,.6-.25.86.86,0,0,0,0-1.21L18.54,10.5a1.07,1.07,0,0,0-.28-.19.94.94,0,0,0-.66,0,1,1,0,0,0-.27.19l-3.42,3.41a.86.86,0,0,0,1.21,1.21l2-2V25.62H12.81a.86.86,0,0,0-.86.85v4.77L6.58,25.87a.86.86,0,0,0-.6-.25H3.42a1.71,1.71,0,0,1-1.71-1.71V3.42A1.7,1.7,0,0,1,3.42,1.71H34.15a1.7,1.7,0,0,1,1.71,1.71v6.83H23.05a.85.85,0,0,0,0,1.7H35.86V24.41l-2-2a.85.85,0,1,0-1.2,1.21l3.41,3.41a1.07,1.07,0,0,0,.28.19.88.88,0,0,0,.33.06.87.87,0,0,0,.32-.06.92.92,0,0,0,.28-.19l3.42-3.41a.86.86,0,1,0-1.21-1.21l-2,2V12H44.4a1.72,1.72,0,0,1,1.71,1.71Z"/></g></g></svg>