<svg xmlns="http://www.w3.org/2000/svg" viewBox="0 0 38.35 41.55"><defs><style>.cls-1{fill:#404040;}</style></defs><g id="Layer_2" data-name="Layer 2"><g id="smartphone"><path class="cls-1" d="M22.37,0a16,16,0,0,0-16,15.66L.72,21.38A2.42,2.42,0,0,0,.2,24.06a2.38,2.38,0,0,0,2.25,1.5H4.79v7.2a4,4,0,0,0,4,4h5.59v4a.8.8,0,1,0,1.6,0V36a.79.79,0,0,0-.8-.79H8.79a2.41,2.41,0,0,1-2.4-2.4v-8a.8.8,0,0,0-.8-.8H2.45a.83.83,0,0,1-.78-.52.86.86,0,0,1,.18-.94l5.91-6A.83.83,0,0,0,8,16a14.38,14.38,0,0,1,28.76,0,14.24,14.24,0,0,1-4.54,10.47A.79.79,0,0,0,32,27V40.75a.8.8,0,0,0,1.6,0V27.37A15.81,15.81,0,0,0,38.35,16,16,16,0,0,0,22.37,0Zm9,8.07a.8.8,0,0,0-1.13-1.13L24,13.24a3.15,3.15,0,0,0-1.61-.46,3.2,3.2,0,1,0,3.2,3.2,3.05,3.05,0,0,0-.46-1.61Zm-9,9.51A1.6,1.6,0,1,1,24,16,1.6,1.6,0,0,1,22.37,17.58Zm0-11.19a9.48,9.48,0,0,1,4.36,1.06.81.81,0,0,0,1.08-.35A.8.8,0,0,0,27.46,6a11.06,11.06,0,0,0-5.09-1.24A11.17,11.17,0,0,0,13,22a.79.79,0,0,0,.67.37.75.75,0,0,0,.43-.13.79.79,0,0,0,.24-1.1A9.57,9.57,0,0,1,22.37,6.39Zm10,4.5a.8.8,0,0,0-1.43.73,9.51,9.51,0,0,1-.46,9.52.79.79,0,0,0,.24,1.1.75.75,0,0,0,.43.13.81.81,0,0,0,.68-.37,11.13,11.13,0,0,0,.54-11.11Z"/></g></g></svg>