<svg xmlns="http://www.w3.org/2000/svg" xmlns:xlink="http://www.w3.org/1999/xlink" viewBox="0 0 277.93 46.62"><defs><style>.cls-1,.cls-6{fill:none;}.cls-2{fill:#05995c;}.cls-3{fill:#03844f;}.cls-4{fill:#00b174;}.cls-5{clip-path:url(#clip-path);}.cls-6{stroke:#00b274;stroke-miterlimit:10;stroke-width:0.35px;}.cls-7{clip-path:url(#clip-path-2);}</style><clipPath id="clip-path" transform="translate(9.37)"><polygon class="cls-1" points="22.25 21.89 20.2 16.07 0 16.07 0 27.78 20.17 27.78 22.25 21.89"/></clipPath><clipPath id="clip-path-2" transform="translate(9.37)"><polygon class="cls-1" points="236.93 21.89 238.98 16.07 259.18 16.07 259.18 27.78 239.01 27.78 236.93 21.89"/></clipPath></defs><g id="Layer_2" data-name="Layer 2"><g id="smartphone"><polygon class="cls-2" points="31.05 37.32 61.19 37.32 61.19 6.46 31.05 6.46 36.49 21.89 31.05 37.32"/><polygon class="cls-3" points="61.19 37.32 61.19 30.86 49.71 30.86 61.19 37.32"/><rect class="cls-4" x="49.71" width="89.26" height="30.86"/><polygon class="cls-2" points="246.88 37.32 216.74 37.32 216.74 6.46 246.88 6.46 241.44 21.89 246.88 37.32"/><polygon class="cls-3" points="216.74 37.32 216.74 30.86 228.22 30.86 216.74 37.32"/><rect class="cls-4" x="129.59" width="89.26" height="30.86" transform="translate(357.81 30.86) rotate(-180)"/><g class="cls-5"><line class="cls-6" x1="0.16" y1="7.32" x2="17.17" y2="44.3"/><line class="cls-6" x1="1.75" y1="7.32" x2="18.76" y2="44.3"/><line class="cls-6" x1="3.34" y1="7.47" x2="20.35" y2="44.45"/><line class="cls-6" x1="4.93" y1="7.62" x2="21.94" y2="44.6"/><line class="cls-6" x1="6.52" y1="7.77" x2="23.53" y2="44.75"/><line class="cls-6" x1="8.11" y1="7.92" x2="25.12" y2="44.9"/><line class="cls-6" x1="9.71" y1="8.07" x2="26.72" y2="45.05"/><line class="cls-6" x1="11.3" y1="8.22" x2="28.31" y2="45.2"/><line class="cls-6" x1="12.89" y1="8.37" x2="29.9" y2="45.35"/><line class="cls-6" x1="14.48" y1="8.52" x2="31.49" y2="45.5"/><line class="cls-6" x1="16.07" y1="8.67" x2="33.08" y2="45.65"/><line class="cls-6" x1="17.66" y1="8.82" x2="34.67" y2="45.8"/><line class="cls-6" x1="19.25" y1="8.97" x2="36.26" y2="45.95"/><line class="cls-6" x1="20.85" y1="9.12" x2="37.85" y2="46.1"/><line class="cls-6" x1="22.44" y1="9.27" x2="39.45" y2="46.25"/><line class="cls-6" x1="24.03" y1="9.42" x2="41.04" y2="46.4"/><line class="cls-6" x1="25.62" y1="9.57" x2="42.63" y2="46.55"/></g><g class="cls-7"><line class="cls-6" x1="277.77" y1="7.32" x2="260.76" y2="44.3"/><line class="cls-6" x1="276.18" y1="7.32" x2="259.17" y2="44.3"/><line class="cls-6" x1="274.59" y1="7.47" x2="257.58" y2="44.45"/><line class="cls-6" x1="273" y1="7.62" x2="255.99" y2="44.6"/><line class="cls-6" x1="271.41" y1="7.77" x2="254.4" y2="44.75"/><line class="cls-6" x1="269.81" y1="7.92" x2="252.81" y2="44.9"/><line class="cls-6" x1="268.22" y1="8.07" x2="251.21" y2="45.05"/><line class="cls-6" x1="266.63" y1="8.22" x2="249.62" y2="45.2"/><line class="cls-6" x1="265.04" y1="8.37" x2="248.03" y2="45.35"/><line class="cls-6" x1="263.45" y1="8.52" x2="246.44" y2="45.5"/><line class="cls-6" x1="261.86" y1="8.67" x2="244.85" y2="45.65"/><line class="cls-6" x1="260.27" y1="8.82" x2="243.26" y2="45.8"/><line class="cls-6" x1="258.68" y1="8.97" x2="241.67" y2="45.95"/><line class="cls-6" x1="257.08" y1="9.12" x2="240.07" y2="46.1"/><line class="cls-6" x1="255.49" y1="9.27" x2="238.48" y2="46.25"/><line class="cls-6" x1="253.9" y1="9.42" x2="236.89" y2="46.4"/><line class="cls-6" x1="252.31" y1="9.57" x2="235.3" y2="46.55"/></g></g></g></svg>