<svg xmlns="http://www.w3.org/2000/svg" viewBox="0 0 41.17 41.17"><defs><style>.cls-1{fill:#404040;}</style></defs><g id="Layer_2" data-name="Layer 2"><g id="smartphone"><path class="cls-1" d="M32.84,18.62a.87.87,0,0,0,1.22,0,.88.88,0,0,0,0-1.22l-2.83-2.82,5.65-5.65L38,10a.85.85,0,0,0,.61.25.83.83,0,0,0,.6-.25.85.85,0,0,0,0-1.21L32.34,2a.86.86,0,1,0-1.21,1.22l1.11,1.11L26.59,9.94,23.76,7.11a.86.86,0,0,0-1.21,0,.88.88,0,0,0,0,1.22l1.11,1.1L8.33,24.77a2.54,2.54,0,0,0-.76,1.82,2.59,2.59,0,0,0,.76,1.82l.32.32L7.11,30.27a.86.86,0,0,0,0,1.21l.68.68L2,38A.85.85,0,0,0,2,39.2a.82.82,0,0,0,.6.25.85.85,0,0,0,.61-.25L9,33.38l.68.68a.84.84,0,0,0,.6.25.86.86,0,0,0,.61-.25l1.54-1.54.32.32a2.57,2.57,0,0,0,1.81.76h0a2.58,2.58,0,0,0,1.82-.76L31.73,17.51ZM33.45,5.5l2.22,2.22L30,13.37,27.8,11.15ZM10.29,32.23l-.68-.67h0l-.68-.68L9.86,30l1.36,1.35Zm4.9-.6a.87.87,0,0,1-1.22,0L9.54,27.19a.86.86,0,0,1,0-1.21L24.87,10.65l5.65,5.65Zm2.57-9.94a.86.86,0,1,0-1.21,1.22l1.71,1.71a.87.87,0,0,0,1.22,0,.86.86,0,0,0,0-1.21Zm3.43-3.43a.86.86,0,0,0-1.21,0,.85.85,0,0,0,0,1.21l1.71,1.72a.87.87,0,0,0,1.22,0,.86.86,0,0,0,0-1.21Zm2.22-3.43a.85.85,0,0,0,0,1.21l1.71,1.72a.86.86,0,1,0,1.22-1.21l-1.72-1.72A.86.86,0,0,0,23.41,14.83ZM14.33,25.12a.86.86,0,1,0-1.21,1.22l1.71,1.71a.85.85,0,0,0,.61.25.82.82,0,0,0,.6-.25.85.85,0,0,0,0-1.21Zm26-5.39a.86.86,0,0,0-.86.85A18.89,18.89,0,0,1,20.58,39.45a.86.86,0,0,0,0,1.72h0A20.59,20.59,0,0,0,41.17,20.58.85.85,0,0,0,40.31,19.73Zm-19.73-18a.86.86,0,1,0,0-1.71h0A20.59,20.59,0,0,0,0,20.58a.86.86,0,1,0,1.72,0A18.88,18.88,0,0,1,20.58,1.71Z"/></g></g></svg>