<svg xmlns="http://www.w3.org/2000/svg" viewBox="0 0 42.54 41.07"><defs><style>.cls-1{fill:#404040;stroke:#404040;stroke-miterlimit:10;stroke-width:0.37px;}</style></defs><g id="Layer_2" data-name="Layer 2"><g id="smartphone"><path class="cls-1" d="M5.94,30.59A5.77,5.77,0,0,1,.18,24.83V14.53a.6.6,0,0,1,.6-.61H11.09a.6.6,0,0,1,.6.61v10.3A5.77,5.77,0,0,1,5.94,30.59ZM1.39,15.13v9.7a4.55,4.55,0,0,0,9.1,0v-9.7Z"/><path class="cls-1" d="M11.09,19.42H.78a.6.6,0,0,1,0-1.2H11.09a.6.6,0,1,1,0,1.2Z"/><path class="cls-1" d="M5.94,40.89a.6.6,0,0,1-.6-.6V30a.6.6,0,0,1,.6-.6.6.6,0,0,1,.6.6V40.29A.6.6,0,0,1,5.94,40.89Z"/><path class="cls-1" d="M8.88,40.89H3a.6.6,0,0,1,0-1.2H8.88a.6.6,0,0,1,0,1.2Z"/><path class="cls-1" d="M36.6,30.59a5.77,5.77,0,0,1-5.76-5.76V14.53a.61.61,0,0,1,.61-.61h10.3a.6.6,0,0,1,.6.61v10.3A5.77,5.77,0,0,1,36.6,30.59ZM32.05,15.13v9.7a4.55,4.55,0,1,0,9.1,0v-9.7Z"/><path class="cls-1" d="M41.75,19.42H31.45a.6.6,0,1,1,0-1.2h10.3a.6.6,0,0,1,0,1.2Z"/><path class="cls-1" d="M36.6,40.89a.6.6,0,0,1-.6-.6V30a.6.6,0,0,1,1.2,0V40.29A.6.6,0,0,1,36.6,40.89Z"/><path class="cls-1" d="M39.54,40.89H33.65a.6.6,0,0,1,0-1.2h5.89a.6.6,0,0,1,0,1.2Z"/><path class="cls-1" d="M26.36,40.89H16.17a2.37,2.37,0,0,1-2.37-2.37V12a2.32,2.32,0,0,1,2.31-2.32,1.12,1.12,0,0,0,1.12-1.12V.78a.6.6,0,0,1,.6-.6H24.7a.6.6,0,0,1,.6.6V8.51a1.12,1.12,0,0,0,1.12,1.12A2.32,2.32,0,0,1,28.74,12V38.52A2.38,2.38,0,0,1,26.36,40.89ZM18.43,1.39V8.51a2.32,2.32,0,0,1-2.32,2.32A1.12,1.12,0,0,0,15,12V38.52a1.18,1.18,0,0,0,1.17,1.17H26.36a1.18,1.18,0,0,0,1.18-1.17V12a1.12,1.12,0,0,0-1.12-1.12A2.32,2.32,0,0,1,24.1,8.51V1.39Z"/><path class="cls-1" d="M24.7,4.82H17.83a.6.6,0,0,1,0-1.2H24.7a.6.6,0,1,1,0,1.2Z"/><path class="cls-1" d="M24.7,37.46H17.83a.6.6,0,0,1-.6-.6V21.4a.6.6,0,0,1,.6-.61H24.7a.6.6,0,0,1,.6.61V36.86A.6.6,0,0,1,24.7,37.46Zm-6.27-1.21H24.1V22H18.43Z"/></g></g></svg>