<svg xmlns="http://www.w3.org/2000/svg" viewBox="0 0 51.23 40.98"><defs><style>.cls-1{fill:#404040;}</style></defs><g id="Layer_2" data-name="Layer 2"><g id="smartphone"><path class="cls-1" d="M48.15,29.86,43.35,27a13.35,13.35,0,0,0,3.59-1.76,5.22,5.22,0,0,0,2.5-4.07.85.85,0,0,0-.85-.85A3.66,3.66,0,0,1,45,16.56,4,4,0,0,1,45.35,15,7.08,7.08,0,0,0,46,12.24a9.18,9.18,0,0,0-18.35,0A7.28,7.28,0,0,0,28.37,15a4.17,4.17,0,0,1,.34,1.65,3.52,3.52,0,0,1-3.44,3.71.85.85,0,0,0-.85.85,5.18,5.18,0,0,0,2.41,4.06A13.1,13.1,0,0,0,30.36,27l-1,.57a4.57,4.57,0,0,0-.65-.24,17.64,17.64,0,0,1-7.4-4.2V21.75a12.62,12.62,0,0,0,3.47-5.91A5.7,5.7,0,0,0,26.47,12a3,3,0,0,0-1.28-2.13C24.85,4.27,21.05,0,16.22,0s-8.62,4.28-9,9.82A3,3,0,0,0,6,12a5.7,5.7,0,0,0,1.65,3.89,12.62,12.62,0,0,0,3.47,5.91v1.41a17.73,17.73,0,0,1-7.41,4.2A5,5,0,0,0,0,32.22v7.91a.86.86,0,0,0,.25.61.89.89,0,0,0,.6.24H31.59a.87.87,0,0,0,.61-.24.88.88,0,0,0,.25-.61V32.22A5,5,0,0,0,31,28.66l2-1.19a.83.83,0,0,0,.41-.87.85.85,0,0,0-.66-.7,12.77,12.77,0,0,1-4.87-2A4.38,4.38,0,0,1,26.26,22a5.34,5.34,0,0,0,4.16-5.33,5.84,5.84,0,0,0-.49-2.33,5.65,5.65,0,0,1-.54-2.07,7.47,7.47,0,0,1,14.93,0,5.46,5.46,0,0,1-.54,2.07,5.6,5.6,0,0,0-.46,2.25A5.42,5.42,0,0,0,47.59,22,4.42,4.42,0,0,1,46,23.88a13.38,13.38,0,0,1-5,2,.86.86,0,0,0-.67.7.85.85,0,0,0,.41.87l6.55,3.86a4.44,4.44,0,0,1,2.23,3.82v4.13H35A.85.85,0,1,0,35,41H50.38a.85.85,0,0,0,.6-.24.88.88,0,0,0,.25-.61v-5A6.16,6.16,0,0,0,48.15,29.86ZM30.74,39.28h-29V32.22A3.32,3.32,0,0,1,4.16,29c3.56-1,7-3.16,8.47-5a.82.82,0,0,0,.18-.52V21.39a.84.84,0,0,0-.28-.63,11,11,0,0,1-3.3-5.57.85.85,0,0,0-.39-.55A4.19,4.19,0,0,1,7.68,12a.87.87,0,0,1,.2-.36,3.79,3.79,0,0,1,.71-.65A.85.85,0,0,0,9,10.28c.18-5,3.44-8.57,7.25-8.57h0c3.82,0,7.09,3.51,7.28,8.57a.85.85,0,0,0,.36.66,3.7,3.7,0,0,1,.7.65.94.94,0,0,1,.2.36,4.19,4.19,0,0,1-1.15,2.69.85.85,0,0,0-.39.55,11,11,0,0,1-3.31,5.57.87.87,0,0,0-.27.63v2.07a.82.82,0,0,0,.18.52c1.47,1.86,4.91,4,8.47,5a3.33,3.33,0,0,1,2.45,3.22Z"/></g></g></svg>