<svg xmlns="http://www.w3.org/2000/svg" viewBox="0 0 47.94 41.55"><defs><style>.cls-1{fill:#404040;}</style></defs><g id="Layer_2" data-name="Layer 2"><g id="smartphone"><path class="cls-1" d="M24,35.16a.79.79,0,0,0-.8.79v4.8a.8.8,0,0,0,1.6,0V36A.79.79,0,0,0,24,35.16ZM13.8,30.94a.8.8,0,0,0-1.13,0l-1.13,1.13a.8.8,0,0,0,0,1.13.79.79,0,0,0,1.13,0l1.13-1.13A.8.8,0,0,0,13.8,30.94Zm21.47,0a.8.8,0,1,0-1.13,1.13l1.13,1.13a.77.77,0,0,0,.56.24.81.81,0,0,0,.57-1.37Zm-6.6,4.29a.8.8,0,1,0-1.54.41l.41,1.55a.81.81,0,0,0,.77.59.76.76,0,0,0,.21,0,.79.79,0,0,0,.56-1Zm-8.42-.57a.8.8,0,0,0-1,.57l-.42,1.54a.8.8,0,0,0,.57,1,.76.76,0,0,0,.21,0,.81.81,0,0,0,.77-.59l.41-1.55A.8.8,0,0,0,20.25,34.66Zm-3.47-1.43a.8.8,0,0,0-1.09.29l-2.4,4.15a.8.8,0,0,0,.29,1.09.76.76,0,0,0,.4.11.77.77,0,0,0,.69-.4l2.4-4.15A.8.8,0,0,0,16.78,33.23Zm15.47.29a.8.8,0,1,0-1.38.8l2.39,4.15a.8.8,0,0,0,.7.4.76.76,0,0,0,.4-.11.8.8,0,0,0,.29-1.09ZM24,6.39a.8.8,0,0,0,.8-.8V.8a.8.8,0,0,0-1.6,0V5.59A.8.8,0,0,0,24,6.39Zm12.45,7.19a.8.8,0,0,0,.7.4.78.78,0,0,0,.39-.1l4.16-2.4a.8.8,0,0,0-.8-1.39l-4.15,2.4A.79.79,0,0,0,36.42,13.58Zm-2.28-3a.77.77,0,0,0,.56.24.8.8,0,0,0,.57-.24L36.4,9.47a.8.8,0,0,0-1.13-1.13L34.14,9.47A.8.8,0,0,0,34.14,10.6Zm-21.47,0a.77.77,0,0,0,.56.24.81.81,0,0,0,.57-1.37L12.67,8.34a.8.8,0,0,0-1.13,1.13Zm6.6-4.28a.8.8,0,0,0,.77.59.76.76,0,0,0,.21,0,.8.8,0,0,0,.56-1L20.4,4.36a.8.8,0,0,0-1.55.41Zm8.42.56a.76.76,0,0,0,.21,0,.81.81,0,0,0,.77-.59l.41-1.55a.8.8,0,1,0-1.54-.41L27.13,5.9A.79.79,0,0,0,27.69,6.88Zm3.47,1.44a.8.8,0,0,0,.4.11.82.82,0,0,0,.69-.4l2.4-4.16a.8.8,0,1,0-1.39-.79L30.87,7.23A.8.8,0,0,0,31.16,8.32ZM15.69,8a.79.79,0,0,0,.69.4.86.86,0,0,0,.4-.11.8.8,0,0,0,.29-1.09l-2.4-4.15a.8.8,0,1,0-1.38.79Zm32,10.58a.79.79,0,0,0-.56-.23H15.94A8,8,0,0,0,0,19.18v3.19a8,8,0,0,0,15.94.8H36.75v5.59a.82.82,0,0,0,.24.57.79.79,0,0,0,.56.23h6.39a.79.79,0,0,0,.8-.8V23.17h2.4a.79.79,0,0,0,.56-.23.82.82,0,0,0,.24-.57V19.18A.82.82,0,0,0,47.7,18.61Zm-1.36,3h-2.4a.8.8,0,0,0-.56.24.78.78,0,0,0-.24.56V28H41.55V24A.8.8,0,0,0,40,24v4h-1.6v-5.6a.8.8,0,0,0-.8-.8H15.18a.8.8,0,0,0-.8.8,6.39,6.39,0,0,1-12.78,0V19.18a6.39,6.39,0,1,1,12.78,0,.79.79,0,0,0,.23.56.83.83,0,0,0,.57.23H46.34ZM8,14.38a4.81,4.81,0,0,0-4.8,4.8,4.62,4.62,0,0,0,.28,1.59,4.48,4.48,0,0,0-.27,1.6,4.79,4.79,0,1,0,9.58,0,5,5,0,0,0-.27-1.6,4.87,4.87,0,0,0,.27-1.59A4.79,4.79,0,0,0,8,14.38Zm2.92,6.71a3.09,3.09,0,0,1,.27,1.28,3.2,3.2,0,1,1-6.39,0,3.26,3.26,0,0,1,.27-1.28.79.79,0,0,0,0-.64,3.19,3.19,0,1,1,6.12-1.27,3,3,0,0,1-.27,1.27A.88.88,0,0,0,10.91,21.09Z"/></g></g></svg>