<svg xmlns="http://www.w3.org/2000/svg" viewBox="0 0 47.82 37.57"><defs><style>.cls-1{fill:#404040;}</style></defs><g id="Layer_2" data-name="Layer 2"><g id="smartphone"><path class="cls-1" d="M44.4,10.25H35.86V3.42A3.42,3.42,0,0,0,32.45,0h-29A3.42,3.42,0,0,0,0,3.42V22.2a3.42,3.42,0,0,0,3.41,3.42H5.12V33.3a.86.86,0,0,0,.53.79,1,1,0,0,0,.33.06.82.82,0,0,0,.6-.25l8.29-8.29h5.62v1.71a3.42,3.42,0,0,0,3.42,3.42H34.65l6.58,6.58a.9.9,0,0,0,.61.25.78.78,0,0,0,.33-.07.85.85,0,0,0,.52-.78v-6H44.4a3.42,3.42,0,0,0,3.42-3.42V13.66A3.42,3.42,0,0,0,44.4,10.25ZM14.52,23.91a.86.86,0,0,0-.61.25L6.83,31.24V24.76a.84.84,0,0,0-.25-.6.86.86,0,0,0-.6-.25H3.41a1.71,1.71,0,0,1-1.7-1.71V3.42a1.7,1.7,0,0,1,1.7-1.71h29a1.7,1.7,0,0,1,1.7,1.71V22.2a1.71,1.71,0,0,1-1.7,1.71Zm31.59,3.41A1.71,1.71,0,0,1,44.4,29H41.84a.86.86,0,0,0-.61.25.9.9,0,0,0-.24.61v4.76l-5.38-5.37A.86.86,0,0,0,35,29H23.91a1.71,1.71,0,0,1-1.71-1.71V25.61H32.45a3.41,3.41,0,0,0,3.41-3.41V12H44.4a1.72,1.72,0,0,1,1.71,1.71ZM28.18,12H7.69a.86.86,0,1,0,0,1.71H28.18a.85.85,0,0,0,.85-.85A.86.86,0,0,0,28.18,12Zm-20.5-1.7h20.5A.86.86,0,0,0,29,9.39a.85.85,0,0,0-.85-.85H7.68a.85.85,0,0,0-.85.85A.86.86,0,0,0,7.68,10.25Zm13.67,5.12H7.68a.85.85,0,0,0-.85.85.86.86,0,0,0,.85.86H21.35a.86.86,0,0,0,.85-.86A.85.85,0,0,0,21.35,15.37Z"/></g></g></svg>