<svg xmlns="http://www.w3.org/2000/svg" viewBox="0 0 32.55 41.18"><defs><style>.cls-1{fill:none;stroke:#404040;stroke-miterlimit:10;stroke-width:1.46px;fill-rule:evenodd;}</style></defs><g id="Layer_2" data-name="Layer 2"><g id="smartphone"><path class="cls-1" d="M24.49,1.46a4.05,4.05,0,0,1,3-.67,3.68,3.68,0,0,1,1.91,1A3.91,3.91,0,0,1,30.68,4.6a3.87,3.87,0,0,1-4.26,4A3.68,3.68,0,0,1,23.7,7.2a3.71,3.71,0,0,1-.88-1.95A3.94,3.94,0,0,1,24.49,1.46Z"/><path class="cls-1" d="M29.93,18.06c-.43-.08-.84,0-1.2-.06-2.38.19-5.16.38-7.63.48,1.17-1.36,2.41-2.73,3.55-4.06a8,8,0,0,0,1.42-1.82,2.85,2.85,0,0,0-.77-3.25c-.43-.33-1-.54-1.48-.85l-1.46-.87L15,3.4a3.94,3.94,0,0,0-1.62-.71,5.35,5.35,0,0,0-.78.05,3.77,3.77,0,0,0-1.62,1C9.59,5,8.24,6.2,6.93,7.4,6.29,8,5.51,8.52,5.45,9.53A2.41,2.41,0,0,0,7,12a2.58,2.58,0,0,0,2.66-.65C10.91,10.2,12.12,9,13.41,8c1.11.63,2.23,1.25,3.3,1.91-1.8,2-3.52,4.09-5.37,6.07-.1.11-.37.53-.53.6a3.61,3.61,0,0,1-.49.07A11.43,11.43,0,0,0,5,19.23l3.05,3.06a8.52,8.52,0,0,1,1.7-1,6.88,6.88,0,0,1,2.83-.65,7.75,7.75,0,0,1,7.69,5.56,7.88,7.88,0,0,1,.1,4.06A7.46,7.46,0,0,1,19,33.17L22,36.24a11.38,11.38,0,0,0,2.73-5.62,12.75,12.75,0,0,0-1-7.55c1,0,2.21-.15,3.14-.16-.16,2.49-.45,5.36-.61,7.93,0,.58-.13,1.18-.14,1.71a2.33,2.33,0,0,0,1.52,2.23,2.4,2.4,0,0,0,2.64-.67,3.8,3.8,0,0,0,.65-2.36c.29-3.72.55-7.48.87-11A2.35,2.35,0,0,0,29.93,18.06Z"/><path class="cls-1" d="M17.18,34.84c.82.72,1.58,1.53,2.36,2.31a4.54,4.54,0,0,1,.75.77,12.36,12.36,0,0,1-8.45,2.5,12.74,12.74,0,0,1-3.45-.79,7.59,7.59,0,0,1-.91-.41,12.06,12.06,0,0,1-1.8-1,14.48,14.48,0,0,1-1.49-1.32A11.77,11.77,0,0,1,.76,29.26a12.5,12.5,0,0,1,.57-4.63A13.26,13.26,0,0,1,3.26,21c.79.69,1.52,1.48,2.29,2.23.26.26.54.51.77.79.1.1-.09.28-.16.39A7.79,7.79,0,0,0,5.05,28a7.47,7.47,0,0,0,1,4.3A8.16,8.16,0,0,0,8.72,35a7.74,7.74,0,0,0,8.46-.16Z"/></g></g></svg>