<svg xmlns="http://www.w3.org/2000/svg" viewBox="0 0 33.53 40.23"><defs><style>.cls-1{fill:#404040;}</style></defs><g id="Layer_2" data-name="Layer 2"><g id="smartphone"><path class="cls-1" d="M31,35.21h-.83v-.84a13.41,13.41,0,0,0-10.9-13.16V19A13.42,13.42,0,0,0,30.18,5.87V5H31a2.52,2.52,0,0,0,2.52-2.51h0V.84a.82.82,0,0,0-.25-.59A.82.82,0,0,0,32.69,0H.84a.86.86,0,0,0-.6.25A.85.85,0,0,0,0,.84V2.52A2.51,2.51,0,0,0,2.51,5h.84v.84A13.41,13.41,0,0,0,14.25,19v2.18A13.4,13.4,0,0,0,3.35,34.37v.84H2.51A2.51,2.51,0,0,0,0,37.72V39.4A.87.87,0,0,0,.24,40a.83.83,0,0,0,.6.24H32.69a.82.82,0,0,0,.59-.24.83.83,0,0,0,.25-.59V37.72A2.51,2.51,0,0,0,31,35.21ZM2.51,3.35a.83.83,0,0,1-.83-.83V1.68H31.85v.84a.83.83,0,0,1-.84.83ZM5,5.87V5H28.5v.84a11.63,11.63,0,0,1-1.14,5H6.17A11.63,11.63,0,0,1,5,5.87Zm0,28.5A11.73,11.73,0,0,1,15.2,22.75a.85.85,0,0,0,.73-.83v-3.6a.84.84,0,0,0-.73-.83,11.74,11.74,0,0,1-8-4.92H26.38a11.74,11.74,0,0,1-8,4.92.83.83,0,0,0-.73.83v3.6a.84.84,0,0,0,.73.83A11.73,11.73,0,0,1,28.5,34.37v.84h-.3a13.1,13.1,0,0,0-22.87,0H5Zm21.2.84H7.3a11.42,11.42,0,0,1,18.93,0Zm5.62,3.35H1.68v-.84a.84.84,0,0,1,.83-.84H31a.84.84,0,0,1,.84.84ZM16.76,25.15a.84.84,0,1,0,0-1.68.83.83,0,0,0-.59.25.85.85,0,0,0,0,1.18A.83.83,0,0,0,16.76,25.15Zm0,2.51a.82.82,0,0,0,.84-.84.87.87,0,0,0-.24-.59.85.85,0,0,0-.6-.24.82.82,0,0,0-.83.83.85.85,0,0,0,.24.6A.87.87,0,0,0,16.76,27.66Z"/></g></g></svg>