<svg xmlns="http://www.w3.org/2000/svg" viewBox="0 0 53.95 53.95"><defs><style>.cls-1{fill:none;stroke:#404040;stroke-miterlimit:10;stroke-width:1.39px;}.cls-2{fill:#404040;}.cls-3{fill:#fff;}</style></defs><g id="Layer_2" data-name="Layer 2"><g id="smartphone"><circle class="cls-1" cx="26.97" cy="26.97" r="26.28"/><circle class="cls-2" cx="26.97" cy="26.97" r="20.17"/><path class="cls-3" d="M37.06,22.44a.82.82,0,0,0,0-1.17l-2-2a.83.83,0,0,0-1.17,0l-9.07,9.07a.83.83,0,0,1-1.17,0l-3.59-3.6a.83.83,0,0,0-1.17,0l-2,2a.83.83,0,0,0,0,1.17l3.6,3.59.58.59.59.59,2,2a.83.83,0,0,0,1.17,0l2-2L28,31.5Z"/></g></g></svg>