<svg xmlns="http://www.w3.org/2000/svg" viewBox="0 0 34.15 47.82"><defs><style>.cls-1{fill:#404040;}</style></defs><g id="Layer_2" data-name="Layer 2"><g id="smartphone"><path class="cls-1" d="M5.36,12.55a.87.87,0,0,0,.62.26.84.84,0,0,0,.59-.24.85.85,0,0,0,0-1.21A5.33,5.33,0,0,1,6.59,4,.86.86,0,0,0,5.36,2.82,7.06,7.06,0,0,0,5.36,12.55Zm13.69,0a.85.85,0,0,0,1.2,0,7.06,7.06,0,0,0,0-9.73.84.84,0,0,0-1.2,0A.86.86,0,0,0,19,4a5.33,5.33,0,0,1,0,7.35A.86.86,0,0,0,19.05,12.57Zm2.53,1.37a.86.86,0,0,0,.06,1.21.83.83,0,0,0,.57.22.9.9,0,0,0,.64-.28,11.29,11.29,0,0,0,0-14.81.86.86,0,1,0-1.27,1.15A9.53,9.53,0,0,1,21.58,13.94ZM4,15.15A.86.86,0,0,0,4,13.94,9.51,9.51,0,0,1,4,1.43.86.86,0,0,0,4,.22.86.86,0,0,0,2.77.28a11.29,11.29,0,0,0,0,14.81.87.87,0,0,0,.63.28A.86.86,0,0,0,4,15.15Zm25.91,8.76A4,4,0,0,0,29,24a4.28,4.28,0,0,0-4.21-3.52,4.21,4.21,0,0,0-2.19.62,4.27,4.27,0,0,0-3.78-2.33,4.14,4.14,0,0,0-1.71.37V7.68a4.27,4.27,0,0,0-8.54,0V22.2H7.68a4.27,4.27,0,0,0-4.26,4.27V35a10.6,10.6,0,0,0,2.32,6.61l4.69,5.88a.86.86,0,0,0,.67.32.8.8,0,0,0,.53-.19.86.86,0,0,0,.14-1.2l-4.7-5.87A8.89,8.89,0,0,1,5.12,35V26.47a2.56,2.56,0,0,1,2.56-2.56h.86v7.68a.86.86,0,1,0,1.71,0V7.68a2.56,2.56,0,1,1,5.12,0V20.82a.85.85,0,0,0,1.5.56,2.53,2.53,0,0,1,1.92-.89,2.57,2.57,0,0,1,2.52,2.21.82.82,0,0,0,.61.7.84.84,0,0,0,.89-.27,2.53,2.53,0,0,1,2-.93,2.56,2.56,0,0,1,2.56,2.56v.48a.88.88,0,0,0,.43.74.85.85,0,0,0,.86,0,2.55,2.55,0,0,1,3.84,2.21V43.55a2.56,2.56,0,0,1-2.56,2.56.86.86,0,1,0,0,1.71,4.27,4.27,0,0,0,4.26-4.27V28.18A4.27,4.27,0,0,0,29.89,23.91Z"/></g></g></svg>